<?xml version="1.0" encoding="UTF-8"?>
<!DOCTYPE svg PUBLIC "-//W3C//DTD SVG 1.1//EN" "http://www.w3.org/Graphics/SVG/1.1/DTD/svg11.dtd">
<!-- Creator: CorelDRAW X6 -->
<svg xmlns="http://www.w3.org/2000/svg" xml:space="preserve" width="11.6111in" height="11.2361in" version="1.1" style="shape-rendering:geometricPrecision; text-rendering:geometricPrecision; image-rendering:optimizeQuality; fill-rule:evenodd; clip-rule:evenodd"
viewBox="0 0 11611 11236"
 xmlns:xlink="http://www.w3.org/1999/xlink">
 <defs>
  <style type="text/css">
   <![CDATA[
    .fil0 {fill:black;fill-rule:nonzero}
   ]]>
  </style>
 </defs>
 <g id="Layer_x0020_1">
  <metadata id="CorelCorpID_0Corel-Layer"/>
  <path class="fil0" d="M4804 5186c-19,13 -36,25 -53,38 18,-13 36,-25 53,-38z"/>
  <path class="fil0" d="M11285 8944c-103,-31 -229,-69 -229,-69 0,0 -137,-65 -215,-167 -142,-215 -368,-417 -431,-559 -63,-142 -80,-563 -316,-917 125,347 170,819 229,986 -108,-94 -295,-583 -417,-976 -122,-392 -705,-1135 -705,-1135 0,0 365,287 535,503 169,217 441,594 719,785 278,191 674,212 913,-3 149,-134 251,-395 253,-671l0 -12c-1,-165 -37,-334 -121,-484 -226,-406 -558,-705 -708,-1028 -151,-323 -97,-688 -97,-688 0,0 -174,337 87,802 260,465 517,663 528,799 -90,-125 -337,-295 -542,-611 -205,-316 -323,-753 -56,-1153 267,-399 535,-434 670,-694 135,-260 -101,-642 -111,-983 -108,287 125,747 -31,903 106,-244 -326,-969 59,-1236 -36,7 -302,21 -424,528 -122,507 125,790 24,955 -101,165 -306,431 -399,656 -94,226 -174,576 247,1188 388,503 307,385 434,535 319,375 240,1094 -236,1066 -257,-21 -740,-330 -993,-736 -340,-559 -1049,-885 -1049,-885 0,0 -229,-126 -406,-150 -73,69 -358,181 -358,181l35 42c-274,253 -622,247 -622,247 0,0 135,73 236,76 -191,84 -319,174 -580,156 25,28 80,97 118,108 -188,66 -646,-7 -646,-7 0,0 167,111 271,170 -142,-24 -566,45 -781,-90 14,49 142,160 219,201 -260,101 -628,-69 -628,-69 0,0 80,132 101,181 -188,31 -389,-90 -694,-83 -66,-14 -153,-174 -153,-174 0,0 102,142 145,134 125,-28 361,35 572,35 -69,-74 -134,-201 -488,-303 -354,-102 -479,-442 -479,-442 0,0 259,461 650,326 -263,-132 -350,-428 -350,-428 0,0 248,440 792,333 -238,-81 -456,-495 -456,-495 0,0 394,486 840,340 -356,-99 -553,-488 -553,-488 0,0 491,507 900,322 -400,-97 -606,-458 -606,-458 0,0 337,258 537,302 252,55 514,-45 609,-174 -620,93 -838,-264 -838,-264 0,0 560,234 806,169 245,-65 373,-153 451,-206 -303,16 -699,35 -956,-174 280,86 671,65 838,32 167,-32 414,-90 597,-329 -567,176 -1137,19 -1137,19 0,0 1093,134 1428,-616 -382,285 -1178,264 -1178,264 0,0 1234,-120 1231,-868 -288,535 -1160,514 -1160,514 0,0 1176,-104 1144,-1106 -21,65 -396,558 -801,604 30,-58 699,-247 894,-1447 -310,551 -1106,1012 -1106,1012 0,0 -238,292 -313,463 -74,171 -123,678 -389,900 -266,222 -491,444 -1150,634 -660,190 -907,569 -1012,819 16,-120 69,-289 250,-521 -468,329 -616,970 -616,970 0,0 -39,-599 338,-940 -574,345 -637,806 -817,1111 95,-236 185,-866 319,-1167 134,-301 822,-785 868,-1377 44,1095 -769,1195 -919,1780 134,-176 461,-458 912,-803 451,-345 394,-1093 394,-1093 0,0 300,841 -401,1371 263,-179 725,-365 593,-1158 100,72 120,556 120,556 0,0 144,-375 116,-576 -28,-201 -174,-449 -174,-449 0,0 125,109 329,-146 -241,83 -368,5 -662,-442 95,39 220,320 484,273 -278,-90 -407,-634 -407,-634l-160 16c0,0 248,-55 248,-301 -155,218 -366,-18 -447,-60 53,-35 208,102 331,83 -190,-134 -79,-393 -431,-576 4,-76 14,-231 19,-435 -46,63 -47,289 -170,402 -124,112 -288,96 -445,136 23,-62 271,-106 440,-333 16,7 -2,63 -25,127 127,-99 73,-233 118,-310 45,-77 111,-176 137,-285 -345,319 -507,389 -887,558 -380,169 -1030,375 -1012,731 190,42 315,120 315,120 0,0 16,-433 391,-521 -86,69 -238,116 -225,257 296,-10 475,-176 877,16 -414,-72 -509,2 -590,132 -81,130 -218,192 -227,250 -9,58 127,76 220,109 93,32 206,153 275,243 -106,-25 -351,65 -447,79 35,-42 187,-73 197,-97 9,-24 30,-58 7,-111 -79,-102 -259,-81 -433,-208 -53,-39 -127,-150 -201,-174 -74,-23 -220,-54 -220,-54 0,0 -410,153 -433,484 -19,294 153,380 234,396 -56,-86 -72,-134 -65,-188 67,-183 345,-162 458,-178 113,-16 377,-109 377,-109 0,0 153,28 164,53 -42,-10 -181,-25 -302,46 -96,63 -304,119 -358,220 62,-20 164,-125 303,-138 113,-24 164,-56 199,-29 -86,83 -326,67 -498,296 113,-5 155,-49 403,-88 171,-35 333,-25 333,-25 0,0 49,37 60,74 12,37 -19,160 -146,262 -127,102 -194,218 -338,368 454,-174 1074,-79 1176,-1049 97,748 -405,905 -563,954 -863,180 -905,492 -921,625 296,-373 764,-322 1160,-630 -130,236 -752,412 -1097,694 -345,282 -398,708 -398,708 0,0 162,-361 894,-491 271,-63 616,-373 616,-373 0,0 -211,361 -537,523 -96,43 -299,-67 -766,523 0,0 277,-462 367,-500 90,-38 -861,125 -545,1330 -63,-122 -465,-576 -573,-688 -108,-111 -410,-549 -580,-965 -7,139 73,358 104,549 -101,-132 -212,-691 -250,-764 -198,-115 -194,-135 -375,-281 -181,-146 -201,-431 -469,-392 142,128 -56,271 -56,271 0,0 101,-167 0,-215 -215,-73 -372,87 -378,115 285,21 247,94 354,128 -45,253 177,253 288,417 -115,-7 -229,-97 -306,-188 -215,42 -63,288 -63,288 0,0 267,59 316,153 -285,-115 -399,-73 -399,-73 0,0 17,87 278,160 61,19 181,156 274,198 -3,-73 21,-128 21,-128 0,0 24,149 233,191 108,17 69,-226 69,-226 0,0 94,153 63,201 -63,97 -226,292 -28,403 128,77 236,-14 236,-14 0,0 -45,111 -128,108 45,111 62,102 97,233 36,131 31,350 149,552 118,201 170,722 170,722 0,0 73,-17 115,-299 69,274 120,316 152,509 32,193 87,316 95,401 27,-135 25,-164 49,-250 122,188 300,217 382,326 82,110 299,385 382,611 42,-76 14,-549 14,-549 0,0 83,198 153,361 52,-361 -160,-778 -160,-938 86,98 101,208 181,354 49,-410 -194,-924 -257,-1271 -7,188 -14,368 -14,368 0,0 -229,-375 125,-979 7,97 -83,347 -7,681 83,296 174,531 222,597 52,-219 340,-802 535,-1368 -170,653 -385,1222 -472,1486 -87,264 -63,1056 -63,1056 0,0 253,-413 424,-1021 0,542 -358,1139 -438,1257 -77,107 -196,333 -220,510 -24,177 -121,344 -183,580 0,0 -156,410 -229,576 -73,167 -219,313 -264,351 -45,38 -66,28 -118,21 -52,-7 -80,-90 -184,-83 -104,7 -309,-38 -347,-7 -135,142 -306,198 -333,222 -208,194 -104,392 -104,392l104 160c0,0 17,-288 73,-330 56,-42 267,-201 267,-201 0,0 -42,128 -215,229 -59,52 -31,358 -31,358l194 104c0,0 -14,-303 38,-344 52,-41 150,-80 212,-167 61,-86 146,-205 146,-205 0,0 -59,194 -115,271 -56,76 -122,90 -177,153 -31,66 -30,243 -14,292 35,45 819,-42 819,-42 0,0 95,-11 153,-142 57,-132 163,-375 163,-375 0,0 -24,281 -80,368 50,13 142,-38 142,-38 0,0 197,-226 226,-337 28,-111 24,-118 52,-174 28,-56 170,-118 201,-174 31,-56 31,-420 28,-559 -3,-139 122,-597 122,-597 0,0 -67,514 -35,646 156,-295 235,-356 295,-469 83,-191 253,-458 309,-493 56,-35 101,-188 101,-188 0,0 111,-698 205,-937 94,-240 198,-333 368,-594 24,163 -205,420 -281,653 -76,233 -267,531 -236,1083 45,-7 125,-448 208,-441 7,31 -47,185 -28,177 63,-134 139,-281 191,-469 21,247 94,326 118,444 142,-535 322,-493 521,-962 24,163 -267,476 -222,604 80,-139 403,-257 573,-490 -17,118 -21,257 -52,406 66,-118 438,-479 438,-479 0,0 -21,128 -73,212 69,3 247,-240 247,-240 0,0 35,240 -59,313 167,-3 451,-417 611,-451 0,69 7,122 -76,226 124,-61 243,-208 414,-263 86,-29 155,-116 169,-133 14,-17 -132,240 -222,326 149,-28 462,-486 708,-552 104,-26 403,-156 670,-35 285,163 309,465 507,1045 198,580 479,646 622,701 142,56 365,306 583,417 219,111 656,240 656,240 0,0 111,76 111,160 14,63 -56,526 -97,573 -41,47 -108,118 -132,167 -108,21 -351,-49 -455,-17 -104,31 -104,156 -184,250 -80,94 -201,156 -229,205 -28,49 -3,212 -3,212 0,0 19,75 109,154 0,-2 -56,-279 32,-338 88,-59 141,-81 265,-217 -54,196 -149,134 -216,278 -68,143 6,338 7,339 30,17 64,34 103,49 0,0 0,0 1,0 4,-68 14,-219 31,-286 22,-87 152,-173 233,-260 5,82 -203,216 -203,290 0,50 12,204 11,280 36,10 75,19 118,26 -5,-69 -5,-218 74,-292 106,-100 244,-190 368,-347 43,46 -34,253 -81,281 -70,-16 -195,81 -238,130 -43,49 -36,240 -36,240l0 0c1,0 30,-1 75,-2l91 -108 17 104c148,-6 337,-17 360,-32 38,-24 104,-257 128,-264 24,-7 0,170 0,170 0,0 361,-340 403,-476 42,-135 184,-1101 128,-1535 -7,-66 -31,-135 -160,-149zm-8572 -6254c0,0 129,-221 330,-189 53,10 36,49 90,80 -185,-6 -420,109 -420,109zm1019 873c-33,62 -296,191 -255,153 50,-95 284,-282 313,-360 19,98 -24,146 -57,208zm451 -1578l243 -14c0,0 204,115 249,263 -210,-210 -493,-249 -493,-249zm84 487c0,0 372,104 437,392 36,-45 -81,-341 -123,-448 165,109 470,479 470,479 0,0 -254,-204 -299,-241 -6,36 11,241 0,459 -104,-451 -484,-641 -484,-641zm-2337 4121c-132,-355 -69,-344 -221,-693 71,48 262,478 371,757 109,280 480,628 480,628 0,0 -498,-338 -630,-693zm313 4124c-48,79 -207,114 -207,72 0,-41 145,-72 282,-296 27,10 -28,145 -76,224zm7387 -2071c-509,-227 -579,-411 -579,-411 0,0 342,292 465,233 123,-59 -103,-823 -103,-823 0,0 195,492 216,714 22,222 272,470 384,595 -184,-76 -200,-152 -384,-308zm1364 1313c-43,84 -189,209 -287,274 152,-299 152,-829 152,-829 0,0 238,325 135,555zm287 -361c0,0 0,-427 -168,-606 157,70 96,51 168,119 71,68 0,487 0,487z"/>
  <path class="fil0" d="M316 4087c73,-7 59,-106 59,-106 0,0 -49,-82 -149,-106 -101,-24 -200,52 -226,97 233,28 243,122 316,115z"/>
  <path class="fil0" d="M243 4278c-4,-35 18,-113 60,-142 -14,-34 -188,-90 -302,118 139,-3 184,26 243,24z"/>
  <path class="fil0" d="M249 4331c-21,8 -178,14 -178,79 83,14 162,58 208,56 0,-38 -21,-79 -30,-134z"/>
  <path class="fil0" d="M855 4882c-9,211 107,268 162,319 -23,-74 25,-197 25,-197 0,0 -144,-2 -188,-123z"/>
  <path class="fil0" d="M5451 6236c197,55 198,340 809,309 -111,-115 -240,-389 -809,-309z"/>
  <path class="fil0" d="M6711 6402c-111,-115 -436,-444 -871,-225 382,63 329,262 871,225z"/>
  <path class="fil0" d="M6276 5992c325,105 138,263 902,282 -212,-104 -486,-521 -902,-282z"/>
  <path class="fil0" d="M7608 6059c-358,-42 -493,-416 -948,-244 325,105 298,449 948,244z"/>
  <path class="fil0" d="M6965 5670c325,105 486,347 1116,70 -387,-67 -558,-282 -1116,-70z"/>
  <path class="fil0" d="M7306 5491c588,-50 665,365 1197,-112 -455,75 -561,-271 -1197,112z"/>
  <path class="fil0" d="M8868 4913c-420,205 -847,-111 -1324,339 519,-189 960,391 1324,-339z"/>
  <path class="fil0" d="M9166 4549c-315,21 -860,59 -1308,399 503,-66 951,71 1308,-399z"/>
  <path class="fil0" d="M9856 3388c-571,696 -828,362 -1731,1293 1156,-472 1170,104 1731,-1293z"/>
  <path class="fil0" d="M8206 4451c1075,-868 1756,-792 2061,-2177 -872,1089 -1128,556 -2061,2177z"/>
  <path class="fil0" d="M8392 3896c1278,-1579 1810,-810 1875,-3055 -889,2100 -727,587 -1875,3055z"/>
  <path class="fil0" d="M9856 684c-674,1590 -1060,767 -1348,2703 674,-1478 1310,-1214 1348,-2703z"/>
  <path class="fil0" d="M9593 397c-568,1249 -1034,823 -1136,2402 454,-1412 986,-940 1136,-2402z"/>
  <path class="fil0" d="M9159 -5c-800,1762 -813,646 -1735,2803 630,-259 1787,-1648 1735,-2803z"/>
  <path class="fil0" d="M5411 4913c606,-152 1236,-534 1370,-934 134,-400 126,-608 432,-964 208,-306 286,-777 286,-1216 -583,1134 -904,1046 -1040,1366 -135,320 -159,630 -724,903 -74,306 -185,706 -324,846z"/>
  <path class="fil0" d="M3475 2495c74,-33 176,-155 155,-217 -269,-56 -311,160 -311,160 0,0 82,90 155,57z"/>
  <path class="fil0" d="M8965 8884c-215,-20 -220,-524 -195,-719 -175,-260 -160,-1024 -609,-1133 -819,-170 -959,579 -854,909 160,504 424,899 1053,1268 90,115 64,175 60,240 -4,65 -374,354 -374,354 0,0 155,105 145,180 -484,-379 -624,-305 -624,-305 0,0 -175,160 -270,175 -235,70 -225,404 -225,404 0,0 24,67 87,143 0,0 -5,-223 25,-247 30,-24 124,-121 214,-193 7,65 -134,162 -162,251 -19,63 -20,184 -19,250 33,31 73,60 120,86 0,0 1,0 1,0 -1,-58 0,-187 25,-219 32,-42 155,-176 207,-269 24,90 -145,264 -148,300 -3,27 -15,156 -21,218 37,15 77,27 121,35 0,0 1,0 1,-1 5,-79 25,-233 116,-256 122,-32 162,-203 162,-203 0,0 9,213 -62,269 -71,56 -103,72 -124,86 -14,9 -15,74 -15,116 109,9 238,-3 392,-48 150,-125 181,-223 270,-364 4,176 -145,325 -100,325 185,45 749,-539 1088,-1208 -10,-95 -207,-342 -285,-444zm-1393 -1643c0,0 -165,568 260,1407 -768,-666 -260,-1407 -260,-1407zm1114 2569c-66,112 -162,458 -207,454 52,-75 93,-579 200,-668 78,-66 183,-152 272,-279 0,104 -86,189 -265,493z"/>
 </g>
</svg>
