<?xml version="1.0" encoding="UTF-8" standalone="no"?>
<!-- Created with Inkscape (http://www.inkscape.org/) -->
<svg xmlns:dc="http://purl.org/dc/elements/1.1/" xmlns:cc="http://web.resource.org/cc/" xmlns:rdf="http://www.w3.org/1999/02/22-rdf-syntax-ns#" xmlns:svg="http://www.w3.org/2000/svg" xmlns="http://www.w3.org/2000/svg" xmlns:sodipodi="http://sodipodi.sourceforge.net/DTD/sodipodi-0.dtd" xmlns:inkscape="http://www.inkscape.org/namespaces/inkscape" id="svg2" sodipodi:version="0.32" inkscape:version="0.45.1" width="71.644531" height="182.36208" sodipodi:docbase="C:\Documents and Settings\nnogueira\Desktop" sodipodi:docname="Desenho.svg" inkscape:output_extension="org.inkscape.output.svg.inkscape" version="1.0">
  <metadata id="metadata7">
    <rdf:RDF>
      <cc:Work rdf:about="">
        <dc:format>image/svg+xml</dc:format>
        <dc:type rdf:resource="http://purl.org/dc/dcmitype/StillImage"/>
      </cc:Work>
    </rdf:RDF>
  </metadata>
  <defs id="defs5"/>
  <sodipodi:namedview inkscape:window-height="968" inkscape:window-width="1280" inkscape:pageshadow="2" inkscape:pageopacity="0.0" guidetolerance="10.0" gridtolerance="10.0" objecttolerance="10.0" borderopacity="1.0" bordercolor="#666666" pagecolor="#ffffff" id="base" inkscape:zoom="2.8659335" inkscape:cx="27.261974" inkscape:cy="108.11327" inkscape:window-x="0" inkscape:window-y="22" inkscape:current-layer="svg2"/>
  <path style="fill: rgb(0, 0, 0); fill-opacity: 1; fill-rule: evenodd; stroke: none; stroke-width: 1px; stroke-linecap: butt; stroke-linejoin: miter; stroke-opacity: 1;" d="M 36.992651,6.0102261 C 33.273341,3.9260461 30.589291,7.1773461 26.961021,8.1037861 C 23.978171,8.5265861 16.049401,7.6387561 17.016611,11.244126 C 18.731461,16.545116 26.588181,16.023906 30.973671,15.256786 C 36.691181,14.476086 42.214891,11.097666 36.992651,6.0102261 z " id="path2171" sodipodi:nodetypes="ccccc"/>
  <path style="fill: rgb(0, 0, 0); fill-opacity: 1; fill-rule: evenodd; stroke: none; stroke-width: 1px; stroke-linecap: butt; stroke-linejoin: miter; stroke-opacity: 1;" d="M 33.416151,19.269436 C 25.614551,19.932026 19.022011,21.229176 18.237851,23.631016 C 16.304961,29.551306 17.932541,33.357346 17.801691,38.809326 C 17.661941,44.632276 22.359541,44.457566 28.269481,42.734736 C 34.179431,41.011916 42.361561,40.508486 41.179771,34.883896 C 39.795041,28.293426 25.428331,38.417746 25.478081,32.005256 C 25.516001,27.250476 39.524061,27.601226 40.918071,25.375646 C 42.226061,23.287406 37.814621,18.895876 33.416151,19.269436 z " id="path3162" sodipodi:nodetypes="csssssss"/>
  <path style="fill: rgb(0, 0, 0); fill-opacity: 1; fill-rule: evenodd; stroke: none; stroke-width: 1px; stroke-linecap: butt; stroke-linejoin: miter; stroke-opacity: 1;" d="M 44.320111,11.593056 C 43.827481,17.577386 44.336031,34.089166 44.275221,41.807776 C 44.257271,44.085906 48.663141,46.162476 51.124171,43.083676 C 52.010681,41.974626 52.343561,35.472026 51.732421,31.095476 C 51.281601,27.867006 56.210631,27.393376 57.143151,28.603216 C 59.765551,32.005476 57.889181,52.885436 57.579311,56.255636 C 56.734211,65.447086 57.688351,62.754396 61.853661,63.234166 C 63.656521,63.441826 65.539201,64.193716 65.168461,56.691796 C 64.434761,41.845166 64.948921,11.869436 65.168461,9.3250361 C 65.591781,4.4188061 63.672381,2.3441061 62.281501,1.3583161 C 57.420871,-2.0866739 56.921021,1.6166161 57.317621,5.8357661 C 57.830641,11.293566 58.507821,19.036526 57.666541,23.107626 C 57.353841,24.620836 51.901671,24.541456 51.752931,23.481846 C 51.486981,21.587176 52.543141,17.651466 53.130501,14.995086 C 53.429171,13.644296 52.878271,10.899476 51.537631,9.9464361 C 47.285031,6.9233061 44.810281,5.6385361 44.320111,11.593056 z " id="path4133" sodipodi:nodetypes="csssssssssssssss"/>
  <path style="fill: rgb(0, 0, 0); fill-opacity: 1; fill-rule: evenodd; stroke: none; stroke-width: 1px; stroke-linecap: butt; stroke-linejoin: miter; stroke-opacity: 1;" d="M 25.478081,55.557786 C 20.113341,55.841286 12.776631,60.649086 12.742261,62.449086 C 12.702791,64.516326 17.042271,67.477716 19.506241,68.160766 C 20.358381,68.396996 20.652911,69.738646 18.325091,74.661506 C 16.147151,79.267396 1.9536511,86.922076 0.35537109,89.403656 C -0.86537891,91.299076 1.0532211,95.182756 6.1998911,94.550326 C 11.346551,93.917896 16.253331,88.204216 19.982491,86.612236 C 23.712071,85.020076 22.446781,88.204216 21.116501,92.369526 C 19.786221,96.534836 16.624071,98.083196 16.144291,101.35439 C 15.591861,105.12093 19.175591,108.50738 22.686661,105.71597 C 26.197731,102.92455 28.506671,97.618676 29.665191,91.409976 C 30.922291,84.672986 29.140821,81.881626 30.275811,80.854956 C 30.995751,80.203726 38.235701,80.135286 40.220221,78.325236 C 42.525711,76.222436 40.242021,74.029086 38.475581,72.480726 C 36.709141,70.932366 33.634221,72.960496 32.979991,71.172246 C 32.297541,69.306856 34.506551,63.561286 32.282141,59.308746 C 30.057741,55.056206 30.842821,55.274286 25.478081,55.557786 z " id="path5104" sodipodi:nodetypes="cssssssssssssszss"/>
  <path style="fill: rgb(0, 0, 0); fill-opacity: 1; fill-rule: evenodd; stroke: none; stroke-width: 1px; stroke-linecap: butt; stroke-linejoin: miter; stroke-opacity: 1;" d="M 40.918071,50.411116 C 40.230891,53.265546 44.014791,52.984446 45.366881,60.006596 C 46.718971,67.028746 46.177171,70.959986 45.890271,77.540156 C 45.739731,80.992806 35.815021,82.054386 34.114011,84.780376 C 32.412991,87.506366 35.466101,88.444096 38.650051,88.618566 C 41.834001,88.793026 45.388501,84.462886 46.326431,86.699476 C 46.932621,88.145016 46.703481,89.338886 46.796751,90.618056 C 46.877961,91.731836 47.044561,93.346446 46.151971,94.812006 C 44.408241,97.675076 37.385191,100.70015 38.039421,101.61608 C 39.043921,103.02238 45.907411,100.75172 50.426321,99.784216 C 54.185211,98.979436 54.962361,98.475736 54.962361,94.899246 C 54.962351,83.368486 54.253691,69.507136 53.741121,57.564116 C 53.523041,52.482876 50.328351,50.486916 46.937051,49.626036 C 44.102021,48.906376 41.201571,49.233496 40.918071,50.411116 z " id="path6075" sodipodi:nodetypes="csssssssssssss"/>
  <path style="fill: rgb(0, 0, 0); fill-opacity: 1; fill-rule: evenodd; stroke: none; stroke-width: 1px; stroke-linecap: butt; stroke-linejoin: miter; stroke-opacity: 1;" d="M 36.294801,103.75326 C 36.646271,104.13994 37.767431,107.21398 42.008471,107.28614 C 47.776661,107.38427 50.426311,104.24394 54.744281,104.49473 C 59.062241,104.74552 59.269421,107.08986 58.364401,110.03393 C 57.459371,112.97799 56.640961,114.14745 51.385861,115.00613 C 48.049251,115.55133 42.553661,115.99839 39.217051,114.43913 C 34.552931,112.25949 33.928641,110.40467 33.765081,107.67868 C 33.601531,104.95269 35.875831,103.29232 36.294801,103.75326 z " id="path7046" sodipodi:nodetypes="csssssss"/>
  <path style="fill: rgb(0, 0, 0); fill-opacity: 1; fill-rule: evenodd; stroke: none; stroke-width: 1px; stroke-linecap: butt; stroke-linejoin: miter; stroke-opacity: 1;" d="M 25.514201,123.54297 C 25.248881,121.91025 28.708101,123.29378 33.658491,122.26881 C 38.608891,121.24384 39.177471,120.30927 44.205511,119.25803 C 48.706171,118.31705 50.960181,118.31569 53.819581,119.92596 C 55.595431,120.92602 57.748211,122.68059 56.243471,125.23212 C 54.738721,127.78364 52.541681,127.2996 46.937051,128.65169 C 41.332421,130.00378 35.681471,129.28273 34.935221,130.02366 C 34.186831,130.76671 34.030521,134.41517 34.052331,138.16613 C 34.074141,141.91709 33.649261,142.87334 34.529001,144.10227 C 35.267651,145.1341 37.843161,144.69172 41.179771,143.64494 C 44.516381,142.59816 46.135311,140.60568 48.677301,139.66842 C 51.295361,139.14951 53.682691,141.49088 54.820391,143.06243 C 56.135061,145.33794 57.047901,148.04575 52.337391,149.14053 C 47.514261,150.26149 44.342561,149.54558 38.013881,151.26584 C 31.486041,153.04024 28.370511,152.9101 27.269421,150.59354 C 24.749031,145.47398 25.694151,128.90377 25.514201,123.54297 z " id="path8017" sodipodi:nodetypes="csssszssssccsscc"/>
  <path style="fill: rgb(0, 0, 0); fill-opacity: 1; fill-rule: evenodd; stroke: none; stroke-width: 1px; stroke-linecap: butt; stroke-linejoin: miter; stroke-opacity: 1;" d="M 46.601501,152.21042 C 45.537491,150.11323 39.974161,152.86806 38.644511,157.26836 C 37.187091,162.09149 36.679341,165.27704 33.216491,168.74122 C 30.329891,171.62893 16.798951,169.61977 16.130561,170.52999 C 15.546981,171.32474 17.523051,177.31937 19.091301,179.65894 C 20.646861,181.97957 22.530081,181.21641 24.951091,179.59725 C 26.881901,178.30595 28.281931,176.88325 38.089381,176.82157 C 47.896821,176.75989 52.679011,176.13714 63.255651,179.96736 C 67.002841,181.32436 71.670491,183.66437 71.644421,181.44773 C 71.629001,180.13699 71.798621,175.17157 67.511721,172.38046 C 63.224811,169.58934 61.332851,171.55313 54.681851,170.90009 C 44.473471,169.89775 43.285421,170.50958 45.614581,163.43656 C 46.748301,159.99379 47.665511,154.30761 46.601501,152.21042 z " id="path8988" sodipodi:nodetypes="cssssssssssss"/>
</svg>