<svg version="1" xmlns="http://www.w3.org/2000/svg" width="1600" height="1600" viewBox="0 0 1200.000000 1200.000000"><path d="M899.5 103.1c-1.3 4.2-20.1 41.4-26.1 51.6-13.6 23.3-21.6 33.4-42.9 54.6-18.2 18.2-23.3 24.3-34 40.7-12.2 18.7-23.2 39.3-36.5 68.5-4.5 9.9-9.2 20.2-10.4 23-3 6.5-3.9 9.5-2.9 9.5 2.3-.1 17.1-9.2 27.3-16.8 14.6-11 40.9-37 52.1-51.7 1.3-1.7 2.6-3.2 3-3.5 2.1-1.7 20.3-27.5 27.2-38.5 18.4-29.5 35.9-69.7 40.3-93 .2-1.1.8-4.3 1.3-7 2-10.2 3-18.6 3.5-30.7.3-7.3-.7-10.7-1.9-6.7zM935.6 145.6c-10.7 23.1-27.7 48.2-47.7 70.5-19.8 22-26 31.1-34.2 49.9-3.9 8.8-9.6 31.2-11.2 44-.3 2.5-1 7.9-1.6 12-.5 4.1-1.2 10.4-1.5 14-.2 3.6-.7 8.2-.9 10.2-.6 5.1.1 4.8 1.9-1 7.1-22.7 21-51.1 33.8-68.9 5.2-7.3 15-19.2 24.3-29.7 16.4-18.5 24.8-33.4 32-57 3.1-10.3 5.6-22 7-32.1.2-1.7.6-4.6.9-6.5 1.2-8.1 1.6-13 1.2-13-.3 0-2.1 3.4-4 7.6z"/><path d="M962.4 165.2c-1.3 4.3-14.2 30.3-20.4 41.3-12.1 21.3-22.1 34.3-42.1 55-5.3 5.5-11.2 11.8-13 14-1.9 2.2-3.7 4.2-4 4.5-2.3 2-10.6 15.5-14.2 23.2-6.2 12.9-14.7 39-17.2 52.6-.2 1.4-.9 4.8-1.5 7.6-1.2 5.7-1.2 5.9-3.4 17.6-.8 4.7-1.8 10.3-2.1 12.5-.3 2.2-.8 5.3-1.1 7-.2 1.6 2.8-3.3 6.7-11 7.8-15.5 15.4-28.6 23.8-41.5 5.7-8.8 21.9-30.6 27-36.3 5.4-6.1 22.3-26.1 26.4-31.1 16.9-21.4 28.3-46.5 32.1-70.6.3-1.9.7-4.4 1-5.5.2-1.1.7-4.9 1.1-8.5.3-3.6.8-7.6 1-9 .7-4.9 1.6-24 1.1-24-.2 0-.8 1-1.2 2.2zM999.3 179.7c-16.7 38.8-31.7 69.1-42.1 84.8-9.2 14-16.7 22.4-35 39.3-6.1 5.7-14.1 14-17.7 18.5-5.8 7.1-19.1 26.4-23.4 33.8-14.7 25-29.4 53.2-43.1 82.4-2.3 4.9-4.5 9.4-4.8 10-.7 1.4 3.3-3 9.8-10.6 9.2-10.8 14-15.9 27-28.9 20.3-20.2 31.7-29.9 61-51.7 33.4-24.9 46.7-41.3 55.8-68.8 2.1-6.3 5.7-20.5 6.7-26.5 2.7-16.1 4.6-32.8 6-52.5.8-11.7 1.6-32.5 1.3-32.5-.2 0-.8 1.2-1.5 2.7z"/><path d="M507 199.8c-2.9 3.6-20.7 17.7-29.4 23.4-10.6 7-30.8 17-54.1 26.8-9.3 3.9-18.8 8-21 8.9-2.2 1-6.5 2.9-9.5 4.2-32.2 13.7-53 31.7-53 45.9v3.6l8.9 2.7c4.8 1.6 10.9 3.9 13.5 5.3 2.6 1.4 5 2.3 5.4 2 .4-.2.9-1.9 1-3.8 1.3-16.8 13.5-34.1 28.5-40.3 5.6-2.3 4.4-.5-3 4.5-7.7 5.2-10.1 8.1-11 13.3l-.6 3.7 5.4-.6c3-.3 9.7-1.5 14.9-2.6 15.2-3.2 16-3.3 27.5-3.2 9 .1 12.4.6 19 2.7 9.5 3.2 12.7 5 7.5 4.2-9.1-1.4-11-1.5-19-1.5-15-.1-20.8 2.8-29.4 14.4-2.9 4-7.9 9.4-11 12.1-3.1 2.6-6.7 6.2-7.8 7.8l-2.2 3 2.7 2.3c1.4 1.2 7 3.6 12.4 5.3 7.3 2.3 11 4 14.7 7.1 5 4.2 14.5 14 14.6 15.1 0 .3-2.8.9-6.2 1.2-7.3.8-7.2.7-20.7 4.2-14.8 3.7-14.5 2.3.7-3.3 4.1-1.5 4.8-2.3 5.6-5.5 1.9-7.4-1.8-10.7-17.4-15.8-14.4-4.7-19-7.4-28.5-16.5-8.3-8-10.6-9.4-18.5-10.9-.8-.2-4-1-7.1-1.8-5.7-1.4-5.7-1.4-11.5 1.5-16.8 8.6-27.8 20.2-31.6 33.3-1.4 4.8-1.7 17.2-.5 22.2 2 8 9.1 17 15.3 19.3 4.3 1.7 4.6 1.2 2-3.3-7.4-12.8-.3-22.5 19.4-26.2.8-.2 5.1-.6 9.5-.9 12.5-1.1 16.8-2.1 35.9-8.3 7.8-2.5 7.8-2.5 14.2-.8 3.5.9 6.6 2 6.8 2.4.2.3-3.5.6-8.3.6-9.3 0-8.1-.4-34.6 12.7-8 3.9-15.3 9.3-14.2 10.4.3.3 2.5-.7 4.9-2.4 7.4-5 10.9-6.5 23.5-9.7 14.6-3.7 19.7-3.1 10.3 1.2-1.4.7-5.9 2.4-10 3.8-10.8 3.8-18.5 8.2-24.2 13.9-6.8 6.8-5.8 6.9 11.7 2.1 3.3-1 6.9-1.9 8-2.1 14.7-2.9 19.7-3.6 29.3-4.1l11.3-.6 3 2.9c6.3 6 2.9 14.6-11.6 28.9C393 420 386 427.4 383 431c-3 3.6-7.2 8.3-9.2 10.5-2 2.2-3.6 4.1-3.4 4.2.1.2 2.9-.6 6.2-1.6 3.2-1.1 12.4-3.6 20.4-5.6 25.7-6.4 36.4-10.7 47.5-19.2 14.6-11.1 24.5-29.8 29-54.6 1-5.4 2-9.6 2.2-9.3 1.2 1.2.4 24.6-1.1 31.2-4.8 22.3-16.9 37.2-38 46.8-4.8 2.2-19.9 6.6-27.9 8.2-4.6.8-21.9 6.9-29.2 10.2-22.3 10-34.3 22.6-37.2 38.7-.5 3-.4 2.9 4.7-2 7.4-7.2 7.1-7 13.5-11.1 7.6-4.8 17.4-9.3 30.5-13.8 5.8-2.1 11.4-4.1 12.5-4.6 1.1-.4 3.6-1.3 5.5-2 9.5-3.3 20.2-8.5 29-14 8.7-5.4 8.9-4.8 1 2.7-5.7 5.4-19.1 13.2-45.5 26.8-24.8 12.7-30 15.7-42.1 24.7-12.4 9.2-21.6 20-29.1 34.4-3.3 6.3-8.8 21.5-9.8 27.3l-.6 3.4 3.9-4.9c9.5-11.9 24.8-22.2 42.9-29 7.5-2.8 22.4-7 27.8-7.8 12.8-2 29.1-10.2 47.2-23.8 5.3-4 10.5-8 11.7-8.8 1.1-.8 0 1.2-2.4 4.5-9.7 13.3-17.2 21.4-27.9 30-10.1 8-14.8 10.3-24.4 12-10.4 1.8-17.7 4.9-26.5 11.2-6.9 4.9-18.1 15.6-27.1 25.8l-5.2 6 3.7-6c10-16.1 21-31.3 25-34.4 6.9-5.4-8.6.3-18.3 6.8-16.3 10.8-28 28.7-31.8 48.6-1.6 8.4-1.8 11.9-1.8 22.6.1 11.7 1.2 21 4.1 33.7.6 2.4.9 4.2.7 4-.1-.2-2.8-3.6-5.8-7.6-8.3-11-38.5-46.1-45.7-53.2-6-5.9-21.5-28.8-32.5-48-7.5-13-17.5-33.1-17.5-35 0-.5-.4-1.1-1-1.5-1.6-1-.1 8.7 4 26 1.6 6.6 3.2 13.5 3.5 15.4.3 1.9.9 3.9 1.2 4.5.3.6-.1.4-.9-.4-3.1-3-7.2-15.3-16.9-50.9l-4.2-15.3-4.5-2.7c-4-2.3-17.9-12.5-19.2-14-.3-.3-3.4-3.1-7-6.1-8.3-7-9-7.8-15.8-18-7-10.5-11.6-15.7-16.4-18.1-3.7-1.9-11.1-3-11.5-1.7-.1.4.5 2.4 1.3 4.4 2.4 5.7 1.1 10.2-5 16.7-3 3.3-3.1 3.2-1.1-1.7 2.2-5.1 2.2-10.2.1-12.5-3.8-4.2-16-4.8-24.2-1.2-4.3 1.9-12.7 8.1-12 8.8.4.4 3.5 1.1 9.1 1.8 5.7.8 9.1 2.2 16.1 6.8 6.1 3.9 6.1 3.9 6.3 8.8.1 5.4 2 10.9 4.8 13.7 1 1 5.4 4.6 9.8 7.9 4.4 3.3 8.9 7 9.9 8.2 1.9 2.1 1.9 2.1-.6 2.1-4.1 0-14.1-5.6-20.1-11.3-5.4-5-5.9-5.2-8.5-4.1-1.5.6-3.6 2.1-4.7 3.3-2.7 3.1-2.5 11.7.4 17.4 2.1 4 2.7 4.4 8.9 6.1 7.2 1.9 17.1 6.7 19.7 9.6 1.4 1.5.1 1.3-7.7-1.1-10.7-3.4-24.1-4.9-25.3-2.8-1.7 2.6 9.5 9.6 20.8 12.9 2.8.9 7.6 3.7 12 7.3 3.9 3.2 9.1 7.1 11.3 8.7l4.2 2.9.6-4.9c.4-2.8 1-5 1.4-5 .4 0 1.6 1.7 2.7 3.7 3.6 6.7 17 13.6 21.7 11.2 2.4-1.3 4.1-8.3 3.5-14.1-.3-2.6-.4-4.8-.1-4.8.7 0 4.2 8 5 11.3 1 4.3.8 5.1-3.2 11.2-5.5 8.3-8.3 16-7.3 20.2 2.3 10.3 15 16.2 25.4 11.9 1.9-.8 3.5-1.2 3.5-.7 0 1.2-6.3 6.9-8.7 7.8l-2.2.8 2.5 5c4.3 8.5 6.4 15.5 8.4 27.5 3.2 19.4 6 29 11.4 38.2 5.1 9 11 32.1 13.7 54.2.8 6 1.6 9.5 2.3 9.3 1.9-.5 6.5-11 7.9-18.1l1.3-6.9 6.2 18.4c3.3 10.1 6.8 22 7.7 26.4 2.3 11.6 7.5 31.9 8.4 32.8.5.5 1.1-1.3 1.5-4 1-7.4 2.7-14.3 3.5-14.3.4 0 1.3 1.1 2 2.3 1.8 3.3 8.1 8.6 19.6 16.4 8.4 5.7 11.1 8.3 16.8 15.8 10.7 14 21.3 30.6 25.9 40 2.2 4.7 4.2 8.4 4.3 8.3 1.4-1.5 2.2-35.9 1.1-45.1-.5-4 .5-2.4 4.3 6.8 1.8 4.4 4.2 9.9 5.2 12.2 1.1 2.4 1.9 4.7 1.9 5.2s.6 1.4 1.4 2c1.2 1 1.4-.1 1.4-6.9 0-7.3-.9-16.8-2.3-24.5-.7-3.7-4.6-18.1-9.1-33.8-1.9-6.5-3.4-12.8-3.4-14 0-2.2.1-2.2 1.9.2 2.4 3.1 6.1 10.6 10.1 20.4 1.8 4.2 3.5 7.5 4 7.2 1.9-1.1-1.2-37.8-3.5-41.5-.2-.4-.7-2-.9-3.6-.7-3.4-5.5-20.9-8.6-30.9-2.7-8.8-5.6-19-8-28-1-3.9-1.9-6.1-2-5-.3 2.9-.8 13.9-.9 22-.2 6.5-.3 6.8-1.6 4.5-4-7.5-6.2-27.8-4.3-41 1.3-8.8 6-22.6 11.3-33.5l5.5-11-.6 5.6c-.2 3.1-.7 6.7-.9 8-2.7 13.7-2.2 35.2 1.1 48.1 5.8 22.9 20.4 59.8 20.4 51.5 0-2.4 18.9-49.8 27.5-69.2.8-1.7 4.4-10.8 8.1-20.3 3.7-9.4 7.1-17.2 7.4-17.2.4 0-.6 4.4-2.2 9.7-1.6 5.4-3.1 10.5-3.3 11.3-.9 4.2-15.5 48.8-23.9 73.3-13.1 38.2-13.3 39.4-14.2 88.7-.5 30.4-.5 30.5 1.4 28.1 6.7-8.3 26.5-54.5 33.2-77.1 1.2-4.1 2.6-8 3.2-8.5.6-.7.8-.5.4.5-.2.8-.7 5-1.1 9.2-.3 4.3-.7 8.3-1 9-.2.7-.6 2.9-.9 4.8-.8 5.2-7.3 27.6-9.6 32.8-1.1 2.4-2 4.8-2 5.3 0 3.1-14.9 32.3-23.6 46.1-12.7 20.4-19.1 34.9-21.1 48.3-.8 5.6-2.4 11-7.3 24.5-2.7 7.4-6.1 17.3-7.6 22-3.2 10.1-18.3 48.8-22.6 58-4.5 9.6-10.2 17.5-18.7 26.1-7.5 7.6-7.6 7.7-12.1 7.2-3-.3-6-1.6-9.2-4-3.9-2.8-5.8-3.5-10.5-3.8-3.2-.1-11.3-.6-17.9-1l-12.2-.7-4.3 3.9c-5.6 5.1-11.7 9.2-19.9 13.3-7.8 4-12.1 8.3-15.6 15.7-2.6 5.6-3.5 13.5-2.2 19.4.9 3.7 10.8 18.6 10.9 16.3 0-1.1.2-2.8.4-3.9s.6-3.8.8-6c.3-2.2.8-5.4 1.2-7 2.1-8.9 2.4-9.4 14.7-18.6 6.6-5 12.2-8.8 12.5-8.5 1.4 1.3-9.3 13-15.8 17.3-2.1 1.4-4.1 3.2-4.5 4.1-1.2 2.9-1.7 26.7-.6 28.8 1 1.8 15.8 10.1 16.6 9.3.2-.2.6-5.8.9-12.4.2-6.6.9-13.2 1.5-14.7s3.9-4.5 7.9-7.1c8.9-5.8 10.6-7.6 18.3-18.5 3.6-5 6.6-8.9 6.8-8.8.7.7-5.9 16.4-8.8 20.9-1.7 2.7-5.7 6.6-9.4 9.3-3.5 2.5-6.9 5.8-7.6 7.2-.7 1.5-1.4 7.3-1.6 12.9-.4 14.3-1.3 13.7 20.1 12.9 9.3-.3 18.1-.8 19.5-1.1 1.4-.2 5.7-.6 9.5-1 16.6-1.3 27-2.7 29.4-4 5.6-2.9 7.4-5.9 17.1-28 6.3-14.3 7-15.5 6.5-11-1 9.7-3 19.1-5.2 24.3l-1.4 3.4 3.3-.7c7.4-1.5 9.4-2.8 15.4-10.4 9.1-11.5 13.2-18.8 15.8-28.4 1.4-4.9 3.1-9.8 3.9-11 .8-1.2 4.9-4.7 9-7.7 4.2-3 8.1-6.6 8.6-8 1.7-4.2 2.2-11.7 2.6-35 .3-18.4.7-24.4 2.5-33 1.2-5.8 2.3-11 2.4-11.5 1.5-7.4 4.1-16.3 4.8-15.9.5.3.6.8.4 1.2-.4.7-.9 5.4-2.2 20-.9 10.3-1.1 26-.4 27.2.3.5 3.1-3.5 6.3-8.8 3.1-5.4 8.2-13.4 11.4-17.7 3.1-4.4 9-14.3 13-22 8.8-16.6 18.7-31.7 23.8-36.4 2-1.8 4.8-5.8 6.2-8.9 2.2-5 2.9-7.7 4.8-18.7.2-1.7.7-4.1 1-5.5.7-3.5 1.3-6.9 2.1-11.5.3-2.2.7-4.2.9-4.5.2-.3.6-2.6 1-5 .3-2.5 1-6.1 1.5-8 .9-3.6 1.7-7.2 2.7-12.5 2.4-13.5 10.4-35.3 16.6-45 3.6-5.7 23.7-34.5 24.1-34.5.2 0-.1 2.2-.5 5-1 6.3-2.8 10.3-12.9 28.5-4.5 8.3-10.4 20.6-13 27.5-2.6 6.9-6.1 15.9-7.8 20-3.8 9.3-9 26.6-9.7 32.8-.4 2.6-.8 5.4-1 6.2-1.6 6.1-2.6 32.2-1.4 34.2.9 1.5 1.5 0 7-16.5 4.1-12.4 6.1-17 8.7-19.9 2.5-2.9 3-1.2 1.6 4.9-.8 3.2-1.4 6.5-1.3 7.3 0 3.1 14-28.4 15.4-34.7.9-4.2 2.5-4.2 2.5-.1.1 4.6 1.9 11.7 6 23 3.2 9 5 12 5 8.3 0-2.7 4.1-13.9 8.4-23 2.6-5.3 8.8-15.1 15.4-24 6.1-8.2 13.6-19.7 16.7-25.5 4.6-8.5 5.5-9.8 5-6.7-.7 4.1-5.1 15.2-7 17.7-3 3.8-12.4 24-13 28l-.7 4.5 5.3-5c3-2.8 11.3-9.1 18.4-14 7.2-4.9 16.5-12.4 20.8-16.7l7.8-7.7-.5 4.7c-.4 2.6-.9 7.4-1.2 10.7-.5 6.1-.7 7.5-1.9 15.5l-.8 4.5 3.9-5c4.4-5.8 7.8-9.5 23.3-25.7 6.3-6.5 11.6-11.6 11.8-11.4.3.3-3.5 12.9-5.3 17.1-.8 2-.8 2 2.1.1 3.5-2.3 9.4-8.2 15-15l4-4.9.5 3.4c.8 5.3-.9 17.1-3 20.6-1.8 3.1-1.8 3.3-.2 3.3 3.2 0 13-7.4 24.9-18.6 6.5-6.2 13.8-12.8 16.3-14.9 4.5-3.8 9.9-6.7 11.1-5.9 1.3.8-1.1 10.8-3.7 15.1l-2.6 4.6 4.8-3.4c2.7-1.8 7.6-5.4 10.9-8 7.9-6.1 12.6-8.9 20.6-12.2 3.8-1.6 8.4-4.6 10.9-7l4.4-4.2-2.9 5c-3.7 6.6-8.1 13-12.2 18.2-1.9 2.4-2.9 4.3-2.2 4.3 2.1 0 11-7.4 23.9-20 15.8-15.5 20.6-19.6 28-24.1 6.3-3.9 22.6-9.1 35.3-11.3 23.2-4 41.4 3.2 52.8 20.9 5.7 9 6.6 11.4 23.9 65 13.3 41.1 27.1 61 49 70.4 15.1 6.5 20.2 9.6 33 20.1 25.7 21 31.6 24.1 71.4 37.6 10.4 3.5 19.6 7 20.4 7.6.8.7 2.8 3.1 4.4 5.2 2.4 3.4 2.8 4.8 2.8 11 0 7.5-2.7 26-5.5 38.6-1.4 6.3-2.5 8.4-6.4 13-2.6 3-5.8 6.9-7.1 8.7-2.2 3.1-2.5 3.2-8.5 2.8-3.4-.3-8-.7-10.1-1-2.2-.3-8.2-.8-13.5-1-12.6-.6-14.6.6-21.1 12.9-5.5 10.4-6.2 11.2-15.3 18.5-12.4 9.8-12.7 10.4-12 21.8.4 5.6 1.1 8.6 2.9 11.7 2.4 4.1 6.6 9 7.1 8.4.2-.2 0-2.3-.4-4.8-1-6.6-.6-17.4.8-20.7.7-1.7 3.8-4.6 7.9-7.3 3.7-2.4 9.3-6.9 12.6-10 4.8-4.5 5.7-5 5.1-3-1.1 4-4.5 8.5-8.3 11.1-12.1 8.2-15.5 21.1-10.1 38.5.7 2.2 2.1 3.6 4.9 4.9 2.2 1 4.3 1.6 4.6 1.3.6-.7 1-3.6 1.8-12.9.9-10.1 1.7-13.1 4.6-17.4 3-4.3 18-18.3 18-16.7 0 1.3-5.1 7.9-10.6 13.7-7.3 7.8-7.6 8.6-7.4 16.7.6 21.4.1 19.9 7.3 21.2l3.7.7.1-3.8c.2-8.1 1.2-13 3.4-17.2 1.8-3.7 2.6-4.4 12-12.6 3.9-3.3 11.1-9.9 16-14.8 8.7-8.6 9-8.7 9.3-6 1 7.8-5.5 22.3-10 22.3-3.4.1-10.4 3.5-14.1 6.9-1.7 1.7-3.5 3.1-3.8 3.1-1.7 0-4.1 7.8-4.6 15l-.6 8h3.6c2.9 0 4.2-.7 7.2-4.3 2-2.3 3.9-4.1 4.3-4 .3.1.7 1.5.9 3 .2 1.6.5 3.3.7 3.9.4 1.2 5.9 1.1 21.7-.1 8.6-.7 9.5-1 12.1-3.7 1.5-1.7 2.8-3.6 2.8-4.3 0-1.2 3.7-10.3 6.2-15.3 1.7-3.3 2.5-1 2.1 5.8-.2 3.3-.1 6 .2 6 .3 0 4.3-3.8 8.8-8.3 15.2-15.4 24.5-27.3 26.5-33.7 1.1-3.3 4.5-22.4 5.7-32 .3-2.5.8-5.2 1-6 .2-.8.7-4.9 1-9 .4-4.1.9-8.4 1.1-9.5.2-1.1.7-5.6 1-9.9.3-4.4.7-8.8.9-9.8.8-3.7 1.8-26.5 1.8-37.8 0-28.6-1.9-34.3-12.3-36.4-11.1-2.3-26.4-7.9-32.2-11.9-6.1-4.2-8-6.3-20-21.8-3.2-4.1-7.6-9.4-9.8-11.9-6.4-7.1-16.3-19.8-18.7-24-1.2-2.1-3.1-8-4.3-13.1-6.9-29.4-8.5-35.3-11.7-43.9-3.7-10-9.1-21.1-11.7-24.5-1.5-1.9-1.6-1.8-.5 1 1.1 3 3.7 12.3 4.4 15.8.2 1 .7 2.7 1 3.7.3 1 .8 2.9 1 4.2.3 1.3 1.4 6.8 2.5 12.3 1.1 5.5 2.2 11.1 2.5 12.5.2 1.4 1 5.4 1.6 9 .7 3.6 2.2 11 3.5 16.5l2.2 10-2.4-3c-6.6-8-18.6-36.4-30.9-72.8-8.4-24.5-14.1-36.3-28.7-59.2-10.1-15.8-16.4-24.9-28.5-41.3-4.6-6.1-8.3-11.5-8.3-11.8 0-.4 3 2 6.8 5.2 3.7 3.2 8.3 7.2 10.2 8.9 5.8 5 27.4 26.8 29.8 30 23.2 31.2 46.7 57.4 60.6 67.5 13.3 9.7 27.3 14.8 43.1 15.7 31.7 1.9 53.4-15.4 62.1-49.4 2.3-9 2.5-11.2 2.2-27.3-.3-15.1-.7-18.5-2.8-25-4.7-14.7-13.8-29.8-33.9-55.9-31.1-40.5-37.2-50.3-42-68.1-3.1-11.5-3.2-12.4-3.9-29.5-.7-15.7-.7-15.9-2-11-2.3 8.5-2.5 9.7-2.4 20.5.1 20.4 7 38.3 25.2 65.5 5.4 8.1 21.4 29.5 27.3 36.5 2.1 2.6 5.5 8.4 6.7 11.5.8 2.1-3.4-1.5-14.3-12.5-22.8-22.9-32.3-35.1-40.7-51.9-8-16-11.4-29.5-11.4-45.1 0-19.4 4.4-32.8 16.3-49.7 7.8-11 16.2-19.5 32.1-32.3 8-6.5 15.6-13 17-14.6 14.3-16.7 15.2-27.9 5.2-64.9-3.7-13.4-6.2-25.4-6.2-29.5 0-4.6-1.8-3.6-2.6 1.6-.6 4.4 0 24.4.9 29.4.3 1.4.8 4.7 1.2 7.5.3 2.7.9 6.6 1.2 8.5 1.3 8.1.7 19.5-1.3 23.8l-1.9 4.4-.1-9.4c0-10.4-.2-11.7-3.9-27.8-2.6-11.8-2.9-12.9-3.9-19-.3-1.9-.8-4.9-1.1-6.5-.3-1.7-.7-6.8-1-11.5-.7-14.6 2.3-24.5 9.5-32.4l4.2-4.5-3 .8c-17.1 4.9-29.5 22.9-35.2 51.1-3.6 17.6-2.9 31.8 3 59.5 3.6 16.5 3.4 17-11.2 39-6.9 10.5-13.3 20.3-14.2 22-.9 1.6-2.8 5-4.3 7.5-5.4 9.5-10.5 23-12 32.5-.7 4.2-.8 19.2-.1 24 2.3 15.6 10.1 34.8 22 53.9 7 11.1 29.5 39.9 43.8 55.9 22.6 25.4 24.7 70.6 4 89.5-7.2 6.7-19.3 9.3-30.8 6.7-20.7-4.8-53.3-27.4-70.8-49.1-2.1-2.7-4.2-5.1-4.5-5.4-.3-.3-3.9-5.5-7.9-11.5-4-6.1-9.3-13.5-11.9-16.5-23.2-27.4-58.5-52.6-95.6-68.5-8.6-3.6-15.8-6-16.7-5.5-.2.1-1.5-.3-2.9-.8-2.2-.9-3.3-.6-7 1.9-2.4 1.6-9.6 5.2-15.9 8-6.3 2.9-11.6 5.3-11.8 5.5-.2.1.2 1.1.9 2.2 1.1 1.7.9 2.3-1.7 4.5-3.8 3.4-14.6 9.8-20.9 12.4-6.9 2.9-20.1 6.3-25.8 6.6-2.6.1-4.7.5-4.7.9 0 .5.1.8.3.8.1 0 4 1.3 8.7 2.9 4.6 1.6 8.9 2.7 9.5 2.4.7-.4.7-.3 0 .4-1.3 1.4-17.8 8.7-24.1 10.7-7.1 2.3-13.1 3.3-20.1 3.2-7-.1-7.1.6-.8 6.2 2.1 1.8 3.6 3.5 3.3 3.7-1.9 1.9-34.3 2.7-42.7 1-1.3-.2-4.9-.7-8-1.1l-5.6-.6 10.5 6.7c5.8 3.7 10.8 7 11.2 7.4 1.8 1.6-44.5.4-52.2-1.4-5.8-1.3-8.2-2.1-11.9-3.7l-4.5-1.9 1.9 2.3c3.9 4.6 9.8 9.9 13.6 12.5 4.5 2.9 4.2 3.8-1.7 5.1-10 2.2-27.6 0-42.7-5.4-3.8-1.3-6.7-2.1-6.5-1.7.1.5 2 3.9 4.2 7.6 2.1 3.7 3.6 7 3.3 7.3-.9 1-8.1 1-12.7.2-5.8-1.1-6.2-1.2-21.1-4.2-7-1.4-16.2-2.8-20.5-3-4.4-.2-8.2-.4-8.5-.5-1.2-.2-4.5-3.7-7.9-8.1l-3.4-4.5 4.8 4.5 4.7 4.5 9.7.1c8.7.1 16.4.8 21.8 1.8 5.7 1.1 21.4 1.7 21.4.8 0-.5-3.1-3.8-6.8-7.4-7.7-7.2-18.4-13.2-31.2-17.3-22-7-35.7-17.8-44.9-35l-2.1-4 2.2 2.9c5.1 6.6 13.2 14.6 18.1 18 9.8 6.7 22.8 9.6 32.6 7.2l4.3-1.1-4.8-3.2c-10.4-6.8-20-18.7-24.9-31.1-1.4-3.5-1.4-3.6.2-1.2 3.3 5 15 15.6 21.4 19.3 3.5 2.1 9.3 4.7 12.9 5.9 7.1 2.3 22.9 3.5 30.5 2.3l4.6-.6-4.9-2.5c-8.8-4.4-22.6-19.6-32.1-35.4l-3.3-5.5 6.3 6.1c17.6 16.7 36.5 25.9 52.6 25.7 5.8-.1 14.3-1.4 14.3-2.2 0-.5-2.1-1.6-4.7-2.6-12.2-4.6-27.9-18.1-37.4-32.1-2.7-4.1-4.5-7.4-4-7.4.6 0 1.4.6 1.8 1.3.4.6 4 3.7 7.8 6.7 19.2 15.1 36.5 22.4 52.5 22.2 9.2-.1 18.2-2.4 14.5-3.8-16.4-5.9-27.5-12.7-37.7-23.1-6.5-6.6-14.8-16.9-13.1-16.2.4.2 6 3.9 12.4 8.1 13.6 9.1 25.5 15.2 33.6 17.3 13.2 3.5 33.2.9 44.3-5.8 4.8-2.9 11-7.7 11-8.6 0-.4-2.2-.5-4.9-.1-5.8.7-21 .5-26.4-.4-13-2.1-26.1-7.8-34.9-15-6.2-5.1-9.6-9.6-6.2-8.1 6.6 2.7 25.7 8.9 34 11 20 5.1 31.5 5.2 44.9.5 9.5-3.4 22.2-9.4 27.9-13.2l3.4-2.4-18.6.2c-16.8.2-28.1-.7-39.6-3.1-5.2-1.1-16.9-6-22.1-9.3-5.8-3.6-5.7-3.7 2.7-1.8 11 2.5 12.9 2.7 31.8 3.1 40.4.7 67.3-7.6 84.7-26.4 2.3-2.5 4.1-4.7 3.9-4.8-.1-.1-1.9.2-4 .8-4.7 1.3-5.8 1.5-16.6 3.6-9.3 1.8-49.6 2.5-58 1-2.5-.5-6.1-1.1-8-1.4-11.2-1.7-11-2 2-2.1 17-.2 24.7-.9 39-3.9 31.7-6.4 56.1-22.6 69-45.7l3.3-5.8-7.5 4.1c-11.5 6.3-29.2 12.1-44.8 14.6-1.9.3-4.6.7-6 1-6.8 1.2-18.5 2.3-33.5 3-11 .6-13.9.1-5.4-.9 9.2-1.1 37.3-8.4 44.4-11.6 21.8-9.7 30.7-15.1 39-23.4 8.5-8.5 12.9-15.2 15.8-24.1 1.9-5.7 3.7-16.5 2.8-16.5-.3 0-1.8 1.9-3.3 4.3-5.8 9-17.8 19.1-30 25.3-10.8 5.5-29.5 11.2-41.8 12.8-2.5.3-5.4.8-6.5 1-1.1.2-5.6.6-10 .9l-8 .6 10-2.4c54.9-13 85.4-43.5 88.2-88l.5-9-2.7 4c-13.8 20.1-38.3 40.5-56.5 47-4.1 1.5-13.5 3.7-12.8 3 .2-.2 5.2-3.6 11.3-7.5 29.3-19.3 49.7-49.3 61.5-90.4 3-10.3 7.2-29.7 6.6-30.3-.1-.2-1.8 2.1-3.6 5-16.1 24.8-49.9 55.6-87.7 79.6-7.1 4.5-9.2 6.6-16.1 15.9-9.9 13.3-16.6 23.7-19.2 29.6-1 2.5-4.2 13-7.1 23.3-7.1 26-11.3 36.6-18.9 47.8-4.1 6-9.5 11.1-23.2 22.1-28.7 23.1-48.8 33.3-91.8 46.4-40.2 12.3-68.7 33.7-84.5 63.5-4.5 8.6-4.5 8.6-3.4 3.6 2.6-11.4 11.8-29.6 19.2-37.9 1.1-1.2 1.5-2.2.9-2.2s-6 4.8-12 10.7c-18.1 18-31.4 40.6-40.3 68.8l-1.9 6 .5-11.5c.8-17.9 4.8-33.6 12.5-49 3.7-7.3 10.3-16.6 14.5-20.3l2-1.8-2.1 1c-4.7 2.2-18.4 13.2-25.2 20.1-12.2 12.4-22.5 28.5-32.1 50-5.7 12.8-11.5 25-11.8 24.7-.1-.2.5-2.5 1.3-5.2 1.5-5 13-52.6 13.9-57.7 1-5.2 8.3-29.4 10.8-35.5 1.4-3.4 4.1-8.6 6-11.5 3.4-5.1 15.4-19.6 18.8-22.8 3.9-3.7 26-30.6 32.2-39.1 8.4-11.8 17-29 19.6-39.4 1.1-4.4 2.2-8.9 2.5-10 .9-3.4-.3 20.7-1.3 26.7-3.7 22-12.7 41.5-27 58.8-2.5 3-11.1 12.2-19.2 20.5-23.5 24.1-27.2 28.9-32.9 43.5l-2 5.2 11.2-11.4c6.2-6.2 16-15.4 21.8-20.3 5.8-4.9 10.7-9.2 11-9.5 1-1 20.7-16.8 31.5-25.2 16.8-13 23.9-21.5 30.6-36.4 3-6.8 7.2-20 8.5-26.9.4-2.2.9-4.7 1-5.5.8-4.2 1.7-14.5 1.9-22.3.1-4.8.4-9 .7-9.2.4-.4 2.2 8.5 4.3 21 .9 5.4.6 24-.5 31.1-3.6 23.2-12.8 41.4-29.1 58.2-6.9 7-7.1 7.3-2.9 4.6 28.7-18.3 40.3-33.1 45.6-57.9 1.1-5.3 1.3-26.8.3-32.9-1.3-7.9-.7-8.9 2-3.3 3.5 7.2 7.3 28.9 7.4 42.4 0 2.6 1.3 1.2 2.4-2.5.5-2 2.2-7.5 3.6-12.2 2.4-8.1 3-10.9 4.4-20.5 1.9-12.9-1.5-27.1-10.9-45.8-2.1-4.4-3.4-7.6-2.8-7.2 2.5 1.6 10.2.5 14.4-1.9 4-2.3 12.9-10.6 12.2-11.3-.2-.2-2.3.1-4.8.6-11 2.5-19.8-.7-29.9-10.8-6.8-6.8-24.1-30.1-22.4-30.1.3 0 4.3 3.7 8.8 8.3 9.3 9.5 12.8 12.1 18.8 14.2 5.1 1.8 12.7 2.6 13.5 1.4.3-.5-.1-.9-1-.9-2.6 0-11.4-7.8-15.9-14.2-7.1-10-17.7-34.3-17.7-40.5 0-1.1-1.1-1.3-5.5-.8-3 .3-5.5.3-5.5.1 0-.3 1.7-1.4 3.8-2.5 7.4-3.8 14.2-13.7 14.2-20.6 0-2.5 0-2.5-1.9-.6-5.9 5.9-13.5 7-21.3 3-5.3-2.7-15.8-10-15.8-11 0-.8 9.8 1.8 11.5 3.1 2.8 2 16.5 5.7 16.5 4.3 0-.2-1.2-1.7-2.7-3.2-3.3-3.3-5.8-8.1-9.3-18.1-4.4-12.3-12.6-22.9-21.6-27.9l-4.2-2.4.4-10.1c.2-5.5.6-13.8.8-18.4.2-4.5 0-8.2-.5-8.2s-.9.2-.9.5-1.2 4.9-2.6 10.2c-5.3 19.8-11.3 26.7-27 30.6-4.8 1.3-16.2 3.1-17.1 2.9-.2 0-1.7.3-3.3.8-4.7 1.3-3.3-.8 2.5-3.9 14.4-7.7 19.2-11 26.6-17.9 8.3-7.8 8.8-7.8 5.8.5-1.2 3.1.3 2.9 2.8-.5 2.6-3.5 4.2-8.5 4.7-14.9.2-2.9 1.1-6.5 1.9-8 .8-1.6 3.7-7.3 6.6-12.7 4.9-9.5 6-12.6 4.4-12.6-.5 0-1.5.8-2.3 1.8zm-26.9 80.8c7.3 5 16.9 15.6 16.9 18.6 0 .4-3-1.5-6.6-4.3-3.6-2.7-9.2-6.3-12.4-7.9-5.2-2.6-16.7-6.9-19.7-7.4-3.4-.5-1.7-1.3 3.4-1.5 3.2-.1 5.9-.3 6-.4.1-.2 2-.2 4.2-.1 2.7 0 5.4 1.1 8.2 3zm22.4 48.3c3.9 3.7 10.8 10.9 15.5 16.1 4.7 5.2 8.7 9.7 9 10 6.4 6.4-.1 2-14.3-9.8-4.3-3.5-7.7-6-7.8-5.5-.1.4-.1 9.6 0 20.3l.1 19.5-1.8-5.5c-2.6-7.8-8.7-19.6-13.5-26-5.3-7.2-15.6-17.1-21.8-21.1-5.6-3.7-6.1-4.3-2.2-2.8 15.3 5.8 30.8 19.7 33.9 30.4l.8 3 .4-3.1c.2-2-1.6-8.8-4.8-18-2.8-8.2-5.4-15.8-5.7-16.9-.6-1.8-.4-1.7 2.3.4 1.6 1.2 6.1 5.3 9.9 9zm-147.5-.7c1.6 1.7 2.8 3.4 2.5 3.6-.2.2-2.5.6-5.2.9-6 .6-17.1 3.6-25.2 6.8l-6.2 2.4 3.3-4.1c6.3-8 14.7-12.6 23.1-12.7 4.2-.1 5.2.3 7.7 3.1zm63.3 80c-1 6.8-6.1 14.5-11.8 18.1-4.1 2.6-15.4 8.7-16.1 8.7-1.7 0 1.4-3.7 13.1-16 7.4-7.8 13.5-14.7 13.5-15.3 0-.7.4-.7.9.2.5.7.7 2.7.4 4.3zm-15.6 194.4c-.6 2-1.3 3.2-1.4 2.7-.4-1.1 1.4-6.3 2.1-6.3.2 0-.1 1.6-.7 3.6zm-160.3 47.3c4 8 10.4 21.8 14 30.6 12.8 30.5 15.4 35 29 51.3 7.1 8.4 8.8 10.4 16.5 18.6l3.6 3.9-4-2.9c-12.3-9-29.1-25-37.4-35.8-9.7-12.5-13.8-21.2-19.2-40.7-8.9-31.9-10.2-36.1-13.7-42.4-.3-.6.4-.1 1.7.9 1.2 1.1 5.5 8.5 9.5 16.5zM931.5 808c6.2 18.2 10.2 32.5 12.1 43.4 1.8 10.6 5.8 19.4 14.1 30.6 3.1 4.1 6.1 7.9 6.7 8.5 3 2.7 12.7 14.5 11.8 14.5-2.2 0-13.5-8.6-22.4-17.2-8.5-8.2-11.2-10.1-22.4-15.8-17.6-8.9-31.7-19.1-37.6-27.3-2-2.8-1.9-3.6.4-1.5 6.3 5.9 22.4 15.9 29.3 18.2 5.9 2.1 7.8 2 10.6-.3 1.9-1.5 2.3-2.9 2.5-8.3.2-7.8-1.7-21.1-5.2-36.2-1.4-6.1-2.7-12.2-3-13.4-.3-1.3-1.1-4.2-1.9-6.4-.7-2.2-1-3.7-.5-3.2s3 7 5.5 14.4zm151.3 103.9c4.6 2.4 9.7 7.7 11.2 11.5 1.2 3.2.6 27.6-.9 34.1-.8 3.7-.9 3.8-1 1-1.1-18-4.9-33.4-10.6-42.9-1.8-3.1-3.1-5.6-2.9-5.6.3 0 2.1.9 4.2 1.9zm-25.9 38.3c3.1 5 8 15.7 9.5 20.8 4.4 14.6 2.8 23.5-6 33-5.1 5.4-17.4 16-18.7 16-.3 0 .5-2.6 1.8-5.8 4.5-11 7.2-23.7 9.1-41.7.4-3.9.8-7.7 1-8.5.1-.8.3-4.8.3-8.8.1-7.5.7-8.6 3-5zm-773.8 105.5c-4.9 11.2-8.8 14.8-17.8 16.6-2 .4-3.5.2-4.2-.7-.9-1.1.2-2.4 5.2-6.4 7.2-5.6 14.2-12.8 17.2-17.5 1.9-3 2-3 2.3-1 .2 1.2-1 5.2-2.7 9z"/><path d="M749.9 265.7c-4.7 9.4-18.2 32.4-24.4 41.8-13.9 21-27.3 36.4-46.6 53.1-16.5 14.4-17.5 15.9-26.7 40-6.3 16.5-10.2 24.2-16.4 32.6-8.7 11.8-22.5 22.8-38.9 30.9-3.3 1.6-3.8 2.5-5.3 8.6-7.2 29.4-17.5 56.9-24.8 66.2-1 1.3-1.7 2.6-1.5 2.8.7.7 30.1-9.5 39.7-13.7 41.4-18.1 72.5-44.1 81.4-67.9 1.4-3.6 4.6-13.8 7.1-22.6 9.4-32.6 13.3-41 28.5-61 15.7-20.9 24.5-46.5 28.4-83.5.8-7.3 1.8-30 1.4-30-.3 0-1.1 1.2-1.9 2.7zM389.8 305c-4.9 1.4-9.3 4.8-11.7 9-2.7 4.8-2.3 6.3 2.1 9 5.9 3.6 10.5 2.4 17.1-4.3 5.2-5.3 8.5-13.5 5.5-13.8-5.9-.6-10.7-.5-13 .1zM993.6 313.5c-18.2 22.3-39 40.9-67.1 60-13.2 9-27.6 19.3-28.5 20.4-.3.4-1.8 1.7-3.5 3-9.7 7.3-26.2 25.3-38.9 42-11.4 15.1-31.4 45.6-38.6 59-.6 1.2 5-2.4 12.7-8.2 16.7-12.6 31.2-22.3 58.3-39.1 28.1-17.6 38.9-24.8 50-33.7 26.5-21.3 43.4-46.5 54.8-81.9 3.9-12.1 8.6-30.1 7.8-30 0 0-3.2 3.8-7 8.5zM952.7 417.3c-16.2 16.9-23.8 22.1-54.2 37.4-22.4 11.2-27.5 14.1-39 22.1-15 10.5-25.1 19-40.5 34L808.5 521l7-2.6c20.7-7.8 43.9-14.1 66-17.9 12.5-2.1 23.2-5.2 29.4-8.5 13.8-7.4 26-24.5 39.9-56 6.5-14.8 13.1-30 12.8-30 0 0-4.9 5.1-10.9 11.3zM87.7 449.5c-3.7 1.3-5.5 2.4-8.8 5.7-1.9 1.8-1.5 2.8 1.3 2.8 3.3 0 13.4 3.9 18.6 7.1 5.9 3.6 9.2 3.4 11-.6 1.9-4 1.4-6.1-1.9-9.5-6-5.9-13.2-7.9-20.2-5.5zM89.5 470.9c-4.6 2.2-8.4 5.4-10.9 9.3l-1.8 2.8 4.8.1c2.7 0 5.8.2 6.9.5 1.1.2 3.8.7 6.1 1l4.1.6.6-3.9c.4-2.2 1.6-5.2 2.7-6.6 2.6-3.3 2.6-3.3-1.1-4.6-4.4-1.5-6.8-1.4-11.4.8zM91.3 491.3c-2.4.7-5.3 2.1-6.5 3.2l-2.3 1.9 9.4 2.9c5.1 1.5 9.5 2.6 9.8 2.4.2-.3-.1-3-.9-6.1-1.4-6.2-1.8-6.4-9.5-4.3zM897.8 509.6c-.2.1-4.3.5-9.2.9-5 .4-9.8.8-10.7 1-1 .2-4.2.6-7.1 1-15.4 1.7-35.1 6.6-49.9 12.5-10.3 4.1-26.6 12.8-32.9 17.5l-3.5 2.7 6.6-.6c3.6-.4 12.2-.9 19-1.1 42.9-1.7 52.8-3.7 69.4-13.5 5.9-3.4 21.5-17.8 21.5-19.7 0-.8-2.5-1.4-3.2-.7zM154.5 546.5c.7 6.8 3.6 12.4 8.9 17.2 1.9 1.8 3.7 3.3 3.9 3.3.2 0 .7-2.7 1-6 .4-3.4 1.2-7 1.7-8.1.8-1.4.8-2-.2-2.3-.7-.2-3.5-1.2-6.1-2.1-4.8-1.7-5.3-2.1-8.3-6-1.4-1.8-1.5-1.5-.9 4zM871.8 543.6c-6.6 3.5-17.8 5.1-38.3 5.3-20.5.3-28.4.6-33.9 1.5-13.1 2.2-23.7 6.9-35.6 15.5-5.8 4.2-7.9 7.1-4.2 5.6 8.4-3.3 24.3-2.9 43.7 1 22.7 4.6 31.3 4.9 40.8 1.6 8.9-3.1 14.5-7.5 21.4-16.6 3.8-5 10-15.6 9.1-15.5-.2.1-1.5.7-3 1.6zM778.5 577.7c-11.6 1.3-22.7 5-36.5 12.3l-6.5 3.5 12 .6c8.1.5 15.1 1.6 21.5 3.4 28.1 7.9 27.2 7.7 34.8 7.2 5.6-.4 9.1-1.4 14.5-4 6.6-3.1 22.7-14.2 22.7-15.6 0-.3-5.3-.6-11.8-.7-8.8 0-13.9-.6-20.7-2.3-11.4-2.9-10.1-2.7-16-3.5-7.6-1-10.7-1.2-14-.9zM730.5 602.9c-6.6 1.1-21.3 5.1-24.2 6.6l-2.4 1.3 2.6.6c1.4.4 8.7 3.4 16.2 6.8 17.2 7.7 24.6 9.6 37.1 9.6 11 0 22.2-2.4 36.2-7.9l8.5-3.3-4.5-.8c-2.5-.5-11.5-3.1-20-5.8-8.5-2.7-17.7-5.4-20.5-6-6.6-1.5-22.7-2.1-29-1.1zM689.5 619.8c-1.1.2-4.4 1-7.4 1.8l-5.5 1.6 6 2.8c3.2 1.6 6.8 3.7 7.9 4.7 5.5 5 18.1 14.6 21.3 16.2 9.7 4.8 22.9 5.2 40.2 1.1l9.5-2.3-6-1.7c-8.7-2.4-12.1-4.1-25.8-12.4-6.8-4.1-15.3-8.5-18.8-9.7-5.9-2-16.6-3-21.4-2.1zM656.9 633.4c-.2.3-1.6.7-2.9.9-3.5.7-11 3.8-11 4.6 0 .3 2.7 1.9 6.1 3.4 5.5 2.6 7.8 4.1 11.3 7.2 3.7 3.5 11.1 7.6 16.7 9.4 9.7 3.1 17.2 4.2 38.7 5.5 4.8.3 6.9-.5 4-1.7-.7-.3-6.9-4.8-13.7-10.1-19.7-15.4-28.6-19.6-41.5-19.6-4 0-7.5.2-7.7.4zM616.5 651c-3.8.9-8.5 2.4-10.4 3.2l-3.3 1.5 6.8 1.7c6.7 1.7 9.6 3 25.9 11.3 4.4 2.3 10.9 4.9 14.4 5.8 6.5 1.7 27.1 2.7 29.2 1.5 1.2-.8-5.1-7.1-13.4-13.3-15.3-11.5-33-15.7-49.2-11.7zM570.7 660.7l-2.9.5 3.9 1.9c2.1 1.1 6.5 4.5 9.8 7.5 9.9 9.3 20.1 14.9 30.5 16.8 1.9.3 4.6.8 6 1.1 2.8.6 21 .8 21.6.3.4-.5-3.3-4.8-9.4-11.2-7.7-8-14.5-12-25.7-15.3-4.9-1.4-27.8-2.5-33.8-1.6zM787.5 730.7c-7.2.7-16.3 2.6-19.5 4-8.8 3.9-10.9 5.2-17.5 11.8-5.1 5-8.1 9.1-10.7 14.5-5.8 11.8-7.2 18.5-7.2 34-.1 12.2.2 14.3 2.8 22 1.5 4.7 3.3 9.8 4.1 11.5 6.5 15.2 9.3 21.1 13.3 27.9 14 24.1 34.5 44.9 62.5 63.5 5.9 3.9 11 7.1 11.6 7.1 1.5 0 5.8 6.4 7.4 11 1.4 4.1 1.4 7 .2 12.7-.7 2.9-11.2 13.4-23.8 23.7l-9.6 7.9 3 2.3c5.8 4.3 11.2 11.5 9.6 13-.2.2-2.1-1-4.3-2.7-16.5-13.2-37.4-24-46.8-24.1-3.7-.1-5.1.5-10.3 4.9-7.3 6-11.3 8.5-17.8 10.9-12.9 4.6-19.5 15.1-20.9 33-.3 3.4 2.2 9.4 5.7 13.7l2.2 2.8.2-8.8c.1-4.8.6-10 1.1-11.4 1.1-2.9 19-19.4 20-18.5.3.3-.8 2.3-2.4 4.5-13.7 18-13 16.2-13.8 32.8-.3 5.6-.1 6.4 2.3 8.6 2.8 2.6 8 6.2 8.2 5.6 0-.2.2-3.1.4-6.4.3-7.3 1.3-12.1 2.8-13.8 2.8-2.9 10.6-12.6 14.1-17.5 2.1-2.8 3.9-5.2 4.1-5.2.2 0-.1 1.6-.7 3.6-1.1 4.3-3.2 8.1-8.8 16.2-3.3 4.9-4.1 7.1-4.5 11.8-.3 3.3-.7 7.8-1 10-.4 3.8-.2 4.3 2.3 5.2 7.6 3.1 7.7 3 9.1-4.4 1.8-10.1 4-13.5 10.6-16.8 5.7-2.9 9.9-7.7 12.4-14.1 1-2.6 1.1-2 .7 4.2-.7 10.6-3.1 15.1-10.4 19.9-6.2 4-7.2 5.5-7.2 11.1 0 3.6-.2 3.5 8.7 3.5 8 0 22.8-2.8 27-5 3.7-2 11.9-12 17.3-21.2 3-5 5.7-9.3 6.1-9.6 1.2-.7-.2 6.9-2.2 11.9-1 2.6-3 7-4.4 9.8-1.4 2.7-2.3 5.4-2 5.8.8 1.3 6.4.2 11-2.1 15-7.7 41-34.6 60.9-63.2 8.4-11.9 18.4-28.3 23-37.3l3.5-7-3.9-7c-3.2-6-12.7-19.7-19.6-28.5-1.1-1.4-3.6-3.3-5.6-4.1-6.1-2.6-11.7-12.2-13.2-23-.4-2.7-1-5.9-1.3-7-.3-1.2-.6-9.6-.7-18.7-.1-13.1-.4-17.1-1.7-19.5-2-3.7-8.1-22.3-9.4-29-1.1-5.1-6.3-22.7-9-30.2-6.5-18.3-15.6-30.4-26.5-35.5-6.8-3.2-23.3-5.8-31.5-5.1zm-30.9 32.8c-1.2 10.1-1.2 16.7-.2 30.5.6 7.9.7 8.7 3.2 21.5 3.3 17.1 11 39.9 18.5 54.6 1.7 3.4 2.9 6.3 2.6 6.5-.7.8-15-14.4-19.4-20.7-13.7-19.5-18.4-36.9-17.1-62.9.1-3 2-11.6 3.9-18 1.8-6 8.9-22.3 9.5-21.8.1.2-.3 4.8-1 10.3zm125.9 177.7c-1.3 4.6-4.4 10.5-10.4 19.8-12.4 19.4-15.7 25.8-21.5 41.3-4.6 12.4-8.5 21.1-9.1 20.6-.2-.3.4-3.8 1.5-7.9 1-4.1 2.1-9.2 2.4-11.4 1.2-7.9 5.5-25.3 7.7-31.1 1.7-4.6 3.5-7.2 7.8-11 8.1-7.3 15.4-14.7 18.6-18.9 3.2-4.2 3.9-4.5 3-1.4z"/></svg>